<svg version="1" xmlns="http://www.w3.org/2000/svg" width="1066.667" height="1066.667" viewBox="0 0 800.000000 800.000000"><path d="M677.7 202.6c-.1.1-4.9.5-10.7.8-5.8.4-11.6.8-13 1-1.4.3-5.6.7-9.5 1.1-3.8.3-7.9.8-9 1-1.1.2-4.2.7-7 1-2.7.3-5.7.8-6.5 1-.8.2-3.1.6-5 .9-1.9.3-4.6.8-6 1.1-1.4.3-4.1.8-6 1.1-11.4 1.9-44.6 11.4-53.5 15.3-1.1.5-4.9 2.1-8.5 3.6-35.5 15.1-64.7 38.6-83.8 67.6-15.1 22.9-25.3 52.9-28.9 85.6-1.6 13.7-.8 58.5 1.1 68.8.2 1.1.7 4 1.1 6.5 3 19.9 10.8 42 21.9 62.5 7.9 14.5 22.9 31.4 38.9 43.7 26 20 61 32.5 102 36.5 15.4 1.5 67.4.7 74.7-1.2.8-.2 4-.7 7-1 6.4-.7 6.6-.8 23-3.5 7-1.1 14.8-2.6 17.5-3.3l5-1.2-.2-70c-.1-38.5-.2-80.9-.3-94.3V403h-87.1l.6 21.2c.6 25.6 1.3 46.6 2 60.8.2 5.8.7 17 1.1 25 .3 8 .7 16.1.8 18.2.2 2.2-.1 3.5-.8 3.3-.6-.2-5-.6-9.9-1-4.8-.3-9.3-.8-10-1-.6-.3-2.5-.7-4.2-.9-6-.8-10.2-1.9-19-4.8-25.2-8.4-42.5-23-53.4-45.3-7.3-14.9-11.6-30.8-13.8-50.5-1-9.6-1-48.5 0-57 5.6-46 27.6-68.5 76.9-78.5.9-.2 3.8-.7 6.5-1.1 2.6-.3 5.7-.8 6.8-1 9.1-1.8 55.9-2.5 76.3-1.2l9.4.6-.7-12.7c-.4-6.9-.8-14.2-1-16.1-.2-1.9-.6-8.5-1-14.5-.4-6.1-.8-12.8-1-15-.3-4.3-1.7-26.1-1.8-28.3 0-1-2.5-1.2-10.4-1-5.8.2-10.5.4-10.6.4zM110 244.5v36.4h51.8c28.4 0 57 0 63.5.1H237l-.1 99.7c0 56-.5 102.4-1 105.8-1.3 8.4-4.6 17.3-8.2 21.7-7.5 9.4-22.6 14.7-46.7 16.6-10.3.7-52.6.8-78.5.1l-16-.4V603l6.5.1c25 .5 53-.2 72.5-1.7 14.2-1.1 16.1-1.3 21-1.8 4.9-.6 7.2-1 15-2.2 2.2-.3 4.9-.7 6-.9 6.5-1 11.1-1.9 20-4.1 52.6-13 82.6-35.9 97.2-74.4 3.3-8.7 7.2-26.1 8-36.3.4-4.5.8-67.8.8-140.7V208.5l-111.7-.3L110 208v36.5z"/></svg>